<svg xmlns="http://www.w3.org/2000/svg" width="25.688" height="23.548" viewBox="0 0 25.688 23.548">
  <g id="_001-heart" data-name="001-heart" transform="translate(0.001 0)">
    <g id="Сгруппировать_7212" data-name="Сгруппировать 7212" transform="translate(-0.001 0)">
      <path id="Контур_13070" data-name="Контур 13070" d="M19,21.333c-2.849,0-5.2,2.647-6.154,3.9-.952-1.249-3.305-3.9-6.154-3.9C3,21.333,0,24.724,0,28.892a7.9,7.9,0,0,0,2.482,5.844.529.529,0,0,0,.084.109l9.9,9.879a.535.535,0,0,0,.756,0L23.451,34.5l.106-.1c.084-.079.166-.159.259-.261a.52.52,0,0,0,.1-.128,8.08,8.08,0,0,0,1.777-5.115C25.688,24.724,22.687,21.333,19,21.333ZM23.02,33.405a.5.5,0,0,0-.04.054c-.05.057-.105.108-.159.16l-9.977,9.97-9.4-9.38a.537.537,0,0,0-.124-.159,6.806,6.806,0,0,1-2.25-5.158c0-3.578,2.521-6.489,5.619-6.489,3.064,0,5.678,4,5.7,4.036a.557.557,0,0,0,.9,0C13.32,26.4,15.935,22.4,19,22.4c3.1,0,5.619,2.911,5.619,6.489A7,7,0,0,1,23.02,33.405Z" transform="translate(0 -21.333)" fill="#474747"/>
    </g>
  </g>
</svg>
