<svg id="_001-log-out" data-name="001-log-out" xmlns="http://www.w3.org/2000/svg" width="22" height="22" viewBox="0 0 22 22">
  <g id="Сгруппировать_6751" data-name="Сгруппировать 6751" transform="translate(7.059 11)">
    <path id="Контур_13045" data-name="Контур 13045" d="M11.5,21h4a.5.5,0,0,0,0-1h-4A1.5,1.5,0,0,1,10,18.5v-5a.5.5,0,0,0-1,0v5A2.5,2.5,0,0,0,11.5,21Z" transform="translate(-9 -13)" fill="#818181"/>
  </g>
  <g id="Сгруппировать_6752" data-name="Сгруппировать 6752" transform="translate(0 9.13)">
    <path id="Контур_13046" data-name="Контур 13046" d="M13.5,11h10a.5.5,0,0,0,0-1h-10a.5.5,0,0,0,0,1Z" transform="translate(-13 -10)" fill="#818181"/>
  </g>
  <g id="Сгруппировать_6753" data-name="Сгруппировать 6753" transform="translate(12)">
    <path id="Контур_13047" data-name="Контур 13047" d="M2,22a2.062,2.062,0,0,0,.638-.1l5.99-1.831A1.854,1.854,0,0,0,10,18.333V1.833A1.924,1.924,0,0,0,8,0a2.024,2.024,0,0,0-.639.1L1.372,1.931A1.852,1.852,0,0,0,0,3.667v16.5A1.924,1.924,0,0,0,2,22ZM8,.917a.962.962,0,0,1,1,.917v16.5a.928.928,0,0,1-.688.867l-6,1.833A.987.987,0,0,1,1,20.167V3.667A.924.924,0,0,1,1.688,2.8l6-1.833A1,1,0,0,1,8,.917Z" fill="#818181"/>
  </g>
  <g id="Сгруппировать_6754" data-name="Сгруппировать 6754" transform="translate(6)">
    <path id="Контур_13048" data-name="Контур 13048" d="M2,8a.5.5,0,0,0,.5-.5v-5A1.5,1.5,0,0,1,4,1H15.5a.5.5,0,0,0,0-1H4A2.5,2.5,0,0,0,1.5,2.5v5A.5.5,0,0,0,2,8Z" transform="translate(-1.5)" fill="#818181"/>
  </g>
  <g id="Сгруппировать_6755" data-name="Сгруппировать 6755" transform="translate(0.001 5.202)">
    <path id="Контур_13049" data-name="Контур 13049" d="M23.5,15a.5.5,0,0,0,.354-.853L20.207,10.5l3.646-3.646a.5.5,0,0,0-.707-.707l-4,4a.5.5,0,0,0,0,.707l4,4A.5.5,0,0,0,23.5,15Z" transform="translate(-19 -6.002)" fill="#818181"/>
  </g>
</svg>
