<svg id="_001-filing-cabinet" data-name="001-filing-cabinet" xmlns="http://www.w3.org/2000/svg" width="27.638" height="27.243" viewBox="0 0 27.638 27.243">
  <path id="Контур_13060" data-name="Контур 13060" d="M28.454,53.95H3.184A1.184,1.184,0,0,1,2,52.766V43.684A1.184,1.184,0,0,1,3.184,42.5h8.686a.4.4,0,0,1,.39.331l.269,1.643h6.579l.269-1.643a.4.4,0,0,1,.39-.331h8.686a1.184,1.184,0,0,1,1.184,1.184v9.081A1.184,1.184,0,0,1,28.454,53.95ZM3.184,43.29a.4.4,0,0,0-.395.395v9.081a.4.4,0,0,0,.395.395H28.454a.4.4,0,0,0,.395-.395V43.684a.4.4,0,0,0-.395-.395H20.1l-.27,1.643a.4.4,0,0,1-.39.331H12.195a.4.4,0,0,1-.39-.331l-.27-1.643Z" transform="translate(-2 -26.707)" fill="#474747"/>
  <path id="Контур_13061" data-name="Контур 13061" d="M34.5,59.29H27.395a.395.395,0,1,1,0-.79H34.5a.395.395,0,0,1,0,.79Z" transform="translate(-17.129 -36.39)" fill="#474747"/>
  <path id="Контур_13062" data-name="Контур 13062" d="M45.395,58.7A.4.4,0,0,1,45,58.3V56.083a.395.395,0,0,1,.79,0V58.3A.4.4,0,0,1,45.395,58.7Z" transform="translate(-28.022 -34.688)" fill="#474747"/>
  <path id="Контур_13063" data-name="Контур 13063" d="M27.395,58.7A.4.4,0,0,1,27,58.3V56.083a.395.395,0,0,1,.79,0V58.3A.4.4,0,0,1,27.395,58.7Z" transform="translate(-17.129 -34.688)" fill="#474747"/>
  <path id="Контур_13064" data-name="Контур 13064" d="M29.267,22.109a.4.4,0,0,1-.395-.395V12.8L24.366,8.29H12.29V21.714a.395.395,0,0,1-.79,0V7.895a.4.4,0,0,1,.395-.395H24.529a.4.4,0,0,1,.279.116l4.738,4.738a.4.4,0,0,1,.116.279v9.081A.4.4,0,0,1,29.267,22.109Z" transform="translate(-7.749 -5.526)" fill="#474747"/>
  <path id="Контур_13065" data-name="Контур 13065" d="M34.267,19.083a.4.4,0,0,1-.395-.395V7.8L29.366,3.29H17.29V4.869a.395.395,0,0,1-.79,0V2.895a.4.4,0,0,1,.395-.395H29.529a.4.4,0,0,1,.279.116l4.738,4.738a.4.4,0,0,1,.116.279V18.688A.4.4,0,0,1,34.267,19.083Z" transform="translate(-10.775 -2.5)" fill="#474747"/>
  <path id="Контур_13066" data-name="Контур 13066" d="M48.633,13.028H43.895a.4.4,0,0,1-.395-.395V7.895a.395.395,0,0,1,.79,0v4.343h4.343a.395.395,0,0,1,0,.79Z" transform="translate(-27.115 -5.526)" fill="#474747"/>
  <path id="Контур_13067" data-name="Контур 13067" d="M25.647,17.29h-7.5a.395.395,0,0,1,0-.79h7.5a.395.395,0,1,1,0,.79Z" transform="translate(-11.531 -10.972)" fill="#474747"/>
  <path id="Контур_13068" data-name="Контур 13068" d="M30.582,25.29H18.145a.395.395,0,1,1,0-.79H30.582a.395.395,0,1,1,0,.79Z" transform="translate(-11.531 -15.814)" fill="#474747"/>
  <path id="Контур_13069" data-name="Контур 13069" d="M30.582,33.29H18.145a.395.395,0,0,1,0-.79H30.582a.395.395,0,1,1,0,.79Z" transform="translate(-11.531 -20.655)" fill="#474747"/>
</svg>
