<svg id="_001-shopping55" data-name="001-shopping55" xmlns="http://www.w3.org/2000/svg" width="24.095" height="24.095" viewBox="0 0 24.095 24.095">
  <path id="Контур_12542" data-name="Контур 12542" d="M452.471,366.941a.471.471,0,1,0-.471-.471A.471.471,0,0,0,452.471,366.941Zm0,0" transform="translate(-430.729 -348.776)" fill="#474747"/>
  <path id="Контур_12543" data-name="Контур 12543" d="M1.412,24.095H22.683a1.413,1.413,0,0,0,1.412-1.412V5.177a.471.471,0,0,0-.471-.471H20.33a4.706,4.706,0,1,0-9.412,0H7.341a.471.471,0,0,0-.471.471v5.459H.471A.471.471,0,0,0,0,11.106V22.683A1.413,1.413,0,0,0,1.412,24.095ZM.941,22.683V20.989H11.859v1.694a.471.471,0,0,1-.471.471H1.412A.471.471,0,0,1,.941,22.683Zm21.742.471H12.719a1.405,1.405,0,0,0,.081-.471V20.989H23.153v1.694a.471.471,0,0,1-.471.471ZM15.624.941a3.769,3.769,0,0,1,3.765,3.765h-7.53A3.762,3.762,0,0,1,15.624.941ZM7.812,5.647h3.106V7.812h-.471a.471.471,0,1,0,0,.941H12.33a.471.471,0,0,0,0-.941h-.471V5.647h7.53V7.812h-.471a.471.471,0,0,0,0,.941H20.8a.471.471,0,0,0,0-.941H20.33V5.647h2.824v14.4H12.8V11.106a.471.471,0,0,0-.471-.471H7.812Zm4.047,5.93v8.471H.941V11.577Zm0,0" fill="#474747"/>
  <path id="Контур_12544" data-name="Контур 12544" d="M66.471,286.941v.941a2.824,2.824,0,0,0,5.647,0v-.941a.471.471,0,0,0,0-.941h-.941a.471.471,0,0,0,0,.941v.941a1.882,1.882,0,0,1-3.765,0v-.941a.471.471,0,0,0,0-.941h-.941a.471.471,0,0,0,0,.941Zm0,0" transform="translate(-62.894 -272.541)" fill="#474747"/>
  <path id="Контур_12545" data-name="Контур 12545" d="M452.471,250.706a.471.471,0,0,0,.471-.471v-3.765a.471.471,0,1,0-.941,0v3.765A.471.471,0,0,0,452.471,250.706Zm0,0" transform="translate(-430.729 -234.423)" fill="#474747"/>
</svg>
