<svg xmlns="http://www.w3.org/2000/svg" xmlns:xlink="http://www.w3.org/1999/xlink" width="37" height="40" viewBox="0 0 37 40">
  <defs>
    <clipPath id="clip-path">
      <rect id="Прямоугольник_12" data-name="Прямоугольник 12" width="37" height="40" transform="translate(2.047 1.683)" fill="#0d1112" stroke="#707070" stroke-width="1"/>
    </clipPath>
  </defs>
  <g id="Группа_масок_2" data-name="Группа масок 2" transform="translate(-2.047 -1.683)" clip-path="url(#clip-path)">
    <g id="_001-star" data-name="001-star" transform="translate(3.296 2.802)">
      <g id="Сгруппировать_4623" data-name="Сгруппировать 4623" transform="translate(0)">
        <g id="Сгруппировать_4622" data-name="Сгруппировать 4622">
          <path id="Контур_12407" data-name="Контур 12407" d="M33.746,14.592a1.674,1.674,0,0,0-.944-2.823L23.078,10.28a.184.184,0,0,1-.139-.1L18.624.963a1.671,1.671,0,0,0-3.027,0l-4.315,9.213a.184.184,0,0,1-.139.1L1.42,11.769a1.674,1.674,0,0,0-.944,2.823l7.094,7.286a.188.188,0,0,1,.05.161L5.953,32.276A1.672,1.672,0,0,0,8.413,34.01l8.61-4.77a.181.181,0,0,1,.177,0l8.61,4.77a1.672,1.672,0,0,0,2.459-1.734L26.6,22.038a.187.187,0,0,1,.05-.16Zm-8.612,7.685L26.8,32.515a.177.177,0,0,1-.076.183.173.173,0,0,1-.193.01l-8.61-4.77a1.66,1.66,0,0,0-1.619,0l-8.61,4.77A.173.173,0,0,1,7.5,32.7a.177.177,0,0,1-.076-.183L9.088,22.277a1.681,1.681,0,0,0-.453-1.438L1.542,13.554a.178.178,0,0,1-.043-.19.175.175,0,0,1,.147-.124l9.723-1.489a1.669,1.669,0,0,0,1.261-.944l4.315-9.213a.183.183,0,0,1,.332,0l4.315,9.213a1.669,1.669,0,0,0,1.261.944l9.723,1.489a.175.175,0,0,1,.147.124.178.178,0,0,1-.043.19L25.586,20.84A1.681,1.681,0,0,0,25.133,22.277Z" transform="translate(0 0)" fill="#0d1112"/>
        </g>
      </g>
      <g id="Сгруппировать_4625" data-name="Сгруппировать 4625" transform="translate(28.381 13.643)">
        <g id="Сгруппировать_4624" data-name="Сгруппировать 4624">
          <path id="Контур_12408" data-name="Контур 12408" d="M51.484,24.334l-.037-.006a.744.744,0,0,0-.225,1.471l.037.006a.744.744,0,1,0,.225-1.471Z" transform="translate(-50.59 -24.319)" fill="#0d1112"/>
        </g>
      </g>
      <g id="Сгруппировать_4627" data-name="Сгруппировать 4627" transform="translate(20.836 12.488)">
        <g id="Сгруппировать_4626" data-name="Сгруппировать 4626">
          <path id="Контур_12409" data-name="Контур 12409" d="M42.949,23.027,38,22.269a.744.744,0,1,0-.225,1.471l4.951.758a.744.744,0,0,0,.225-1.471Z" transform="translate(-37.141 -22.26)" fill="#0d1112"/>
        </g>
      </g>
    </g>
  </g>
</svg>
