<svg xmlns="http://www.w3.org/2000/svg" xmlns:xlink="http://www.w3.org/1999/xlink" width="18" height="19" viewBox="0 0 18 19">
  <defs>
    <clipPath id="clip-path">
      <rect id="Прямоугольник_1507" data-name="Прямоугольник 1507" width="18" height="19" transform="translate(0.181 0.465)" fill="#132e2b" stroke="#707070" stroke-width="1"/>
    </clipPath>
  </defs>
  <g id="basket" transform="translate(-0.182 -0.464)" clip-path="url(#clip-path)">
    <g id="_001-shopping-basket" data-name="001-shopping-basket" transform="translate(-0.412 0.974)">
      <g id="Сгруппировать_4641" data-name="Сгруппировать 4641" transform="translate(0 0)">
        <g id="Сгруппировать_4640" data-name="Сгруппировать 4640">
          <path id="Контур_11240" data-name="Контур 11240" d="M17.9,6.894h-.689L14.127,1.072a.568.568,0,1,0-1,.532l2.8,5.29H3.528l2.8-5.29a.568.568,0,1,0-1-.532L2.243,6.894H1.471a1.471,1.471,0,0,0,0,2.943h.041c0,.008,0,.016,0,.024L2.7,16.5a2.61,2.61,0,0,0,2.572,2.154h8.913A2.61,2.61,0,0,0,16.757,16.5L17.941,9.86c0-.008,0-.017,0-.025A1.471,1.471,0,0,0,17.9,6.894ZM15.639,16.3a1.476,1.476,0,0,1-1.454,1.218H5.272A1.476,1.476,0,0,1,3.817,16.3L2.665,9.836H16.792ZM17.9,8.7H1.471a.336.336,0,0,1,0-.672H17.9a.336.336,0,0,1,0,.672Z" transform="translate(0 -0.77)" fill="#132e2b"/>
        </g>
      </g>
      <g id="Сгруппировать_4643" data-name="Сгруппировать 4643" transform="translate(9.095 9.853)">
        <g id="Сгруппировать_4642" data-name="Сгруппировать 4642">
          <path id="Контур_11241" data-name="Контур 11241" d="M9.956,10.942a.568.568,0,0,0-.568.568v4.97a.568.568,0,1,0,1.135,0V11.51A.568.568,0,0,0,9.956,10.942Z" transform="translate(-9.389 -10.942)" fill="#132e2b"/>
        </g>
      </g>
      <g id="Сгруппировать_4645" data-name="Сгруппировать 4645" transform="translate(5.761 9.853)">
        <g id="Сгруппировать_4644" data-name="Сгруппировать 4644">
          <path id="Контур_11242" data-name="Контур 11242" d="M7.912,16.386l-.837-4.97a.568.568,0,1,0-1.12.189l.837,4.97a.568.568,0,1,0,1.119-.189Z" transform="translate(-5.947 -10.942)" fill="#132e2b"/>
        </g>
      </g>
      <g id="Сгруппировать_4647" data-name="Сгруппировать 4647" transform="translate(11.552 9.853)">
        <g id="Сгруппировать_4646" data-name="Сгруппировать 4646">
          <path id="Контур_11243" data-name="Контур 11243" d="M13.424,10.95a.568.568,0,0,0-.654.466l-.837,4.97a.568.568,0,1,0,1.119.189l.837-4.97A.568.568,0,0,0,13.424,10.95Z" transform="translate(-11.925 -10.942)" fill="#132e2b"/>
        </g>
      </g>
    </g>
  </g>
</svg>
