<svg xmlns="http://www.w3.org/2000/svg" xmlns:xlink="http://www.w3.org/1999/xlink" width="36" height="36" viewBox="0 0 36 36">
  <defs>
    <clipPath id="clip-path">
      <rect id="cash" width="36" height="36" transform="translate(0.214 0)" fill="#fff" stroke="#707070" stroke-width="1"/>
    </clipPath>
  </defs>
  <g id="cash-2" data-name="cash" transform="translate(-0.214)" clip-path="url(#clip-path)">
    <g id="_001-cash-payment" data-name="001-cash-payment" transform="translate(7.035 4.304)">
      <g id="_001-cash-payment-2" data-name="001-cash-payment">
        <path id="_001-cash-payment-3" data-name="001-cash-payment" d="M12.8,23.462V28.7a.455.455,0,0,0,.455.455H28.736a.455.455,0,0,0,.455-.455V17.772a2.284,2.284,0,0,0-.268-1.071l-3.375-6.329V2.289a.455.455,0,0,0-.455-.455H13.253a.455.455,0,0,0-.455.455v1.6L7.653,5.5a.455.455,0,0,0-.3.571Zm-.58-15.576-.272-.87L12.8,6.75v7.564L11.05,8.729l.869-.272A.455.455,0,0,0,12.217,7.886Zm16.063,9.886V28.246H25.549a4.1,4.1,0,0,1-4.1-4.012.455.455,0,0,0-.07-.341L18.427,19.52a1.366,1.366,0,1,1,2.264-1.53L20.7,18l2.659,3.679a.455.455,0,0,0,.369.189h1.366a.455.455,0,0,0,.455-.455V12.307l2.572,4.822a1.372,1.372,0,0,1,.161.643Zm-11.84,7.286H15.53V5.932h.911a.455.455,0,0,0,.455-.455V4.566H21.45v.911a.455.455,0,0,0,.455.455h.911V19.377l-1.375-1.9a2.3,2.3,0,0,0-.175-.225,2.732,2.732,0,1,0-3.72.44,2.284,2.284,0,0,0,.127,2.341l2.868,4.245a4.975,4.975,0,0,0,.547,2.149H16.9v-.911A.455.455,0,0,0,16.441,25.058Zm1.844-8.189c-.054.037-.107.076-.157.117a1.822,1.822,0,1,1,2.411-.285,2.278,2.278,0,0,0-2.253.168ZM13.709,2.744H24.638V20.959H23.96l-.233-.322V5.476a.455.455,0,0,0-.455-.455h-.911V4.11a.455.455,0,0,0-.455-.455H16.441a.455.455,0,0,0-.455.455v.911h-.911a.455.455,0,0,0-.455.455V25.513a.455.455,0,0,0,.455.455h.911v.911a.455.455,0,0,0,.455.455h5.248a5.05,5.05,0,0,0,.985.911H13.709Zm-.911,2.1V5.8l-1.559.488a.455.455,0,0,0-.3.571l.272.87L10.343,8a.455.455,0,0,0-.3.571l2.753,8.8v3.05L8.359,6.23Z" transform="translate(-7.333 -1.833)"/>
      </g>
    </g>
  </g>
</svg>
