<svg xmlns="http://www.w3.org/2000/svg" width="22.808" height="13.596" viewBox="0 0 22.808 13.596">
  <path id="eye" d="M11.4,98.725c-4.358,0-8.31,2.384-11.226,6.257a.9.9,0,0,0,0,1.078c2.916,3.877,6.868,6.261,11.226,6.261s8.31-2.384,11.226-6.257a.9.9,0,0,0,0-1.078C19.714,101.109,15.762,98.725,11.4,98.725Zm.313,11.585a4.8,4.8,0,1,1,4.474-4.474A4.8,4.8,0,0,1,11.717,110.31Zm-.145-2.212a2.583,2.583,0,1,1,2.412-2.412A2.579,2.579,0,0,1,11.572,108.1Z" transform="translate(0 -98.725)" fill="#d6d5d5"/>
</svg>
