<svg xmlns="http://www.w3.org/2000/svg" xmlns:xlink="http://www.w3.org/1999/xlink" width="21" height="20" viewBox="0 0 21 20">
  <defs>
    <clipPath id="clip-path">
      <rect id="Прямоугольник_1508" data-name="Прямоугольник 1508" width="21" height="20" transform="translate(0.346 -0.432)" fill="#132e2b" stroke="#707070" stroke-width="1"/>
    </clipPath>
  </defs>
  <g id="hearth" transform="translate(-0.346 0.432)" clip-path="url(#clip-path)">
    <g id="_001-like" data-name="001-like" transform="translate(0.885 1.357)">
      <g id="Сгруппировать_4648" data-name="Сгруппировать 4648" transform="translate(0 0)">
        <path id="Контур_11244" data-name="Контур 11244" d="M17.961,2.847a4.88,4.88,0,0,0-7.791.561,7.428,7.428,0,0,0-.482.782A7.422,7.422,0,0,0,9.2,3.408a4.88,4.88,0,0,0-7.791-.561A5.873,5.873,0,0,0,0,6.747a7.192,7.192,0,0,0,1.981,4.719A44.1,44.1,0,0,0,6.938,16.1c.75.639,1.525,1.3,2.35,2.022l.025.022a.568.568,0,0,0,.748,0l.025-.022c.825-.722,1.6-1.383,2.351-2.022a44.091,44.091,0,0,0,4.957-4.631,7.192,7.192,0,0,0,1.981-4.719A5.873,5.873,0,0,0,17.961,2.847ZM11.7,15.234c-.646.551-1.311,1.118-2.013,1.727-.7-.61-1.367-1.176-2.013-1.727C3.737,11.878,1.135,9.661,1.135,6.747A4.74,4.74,0,0,1,2.265,3.6,3.789,3.789,0,0,1,5.146,2.3,3.827,3.827,0,0,1,8.278,4.064a6.73,6.73,0,0,1,.869,1.728.568.568,0,0,0,1.079,0A6.73,6.73,0,0,1,11.1,4.064,3.746,3.746,0,0,1,17.109,3.6a4.739,4.739,0,0,1,1.13,3.15C18.239,9.661,15.638,11.878,11.7,15.234Z" transform="translate(0 -1.165)" fill="#132e2b"/>
      </g>
    </g>
  </g>
</svg>
