<svg xmlns="http://www.w3.org/2000/svg" width="35" height="25" viewBox="0 0 35 25">
  <g id="flag" transform="translate(-15311 -4128)">
    <g id="_1280px-Flag_of_Russia.svg" data-name="1280px-Flag_of_Russia.svg" transform="translate(15311 4128)" fill="#00afca" stroke="#d5d5d5" stroke-width="1">
      <rect width="35" height="25" stroke="none"/>
      <rect x="0.5" y="0.5" width="34" height="24" fill="none"/>
    </g>
    <g id="Сгруппировать_6665" data-name="Сгруппировать 6665" transform="translate(-54 30.286)">
      <g id="Сгруппировать_6659" data-name="Сгруппировать 6659" transform="translate(15375.395 4100.26)">
        <circle id="Эллипс_233" data-name="Эллипс 233" cx="3.288" cy="3.288" r="3.288" transform="translate(5.25 5.25)" fill="#fec50c"/>
        <g id="c" transform="translate(1.277 1.277)">
          <g id="b" transform="translate(2.127 2.127)">
            <path id="a" d="M-5.231-103.652a.247.247,0,0,0,.269-.271,9.715,9.715,0,0,0-.269-1.127,9.715,9.715,0,0,0-.269,1.127A.246.246,0,0,0-5.231-103.652Z" transform="translate(10.366 105.05)" fill="#fec50c"/>
            <path id="Контур_12576" data-name="Контур 12576" d="M.269,1.4a.247.247,0,0,0,.269-.271A9.714,9.714,0,0,0,.269,0,9.714,9.714,0,0,0,0,1.127.246.246,0,0,0,.269,1.4Z" transform="translate(10.269 4.866) rotate(90)" fill="#fec50c"/>
            <path id="Контур_12577" data-name="Контур 12577" d="M.269,1.4a.247.247,0,0,0,.269-.271A9.714,9.714,0,0,0,.269,0,9.714,9.714,0,0,0,0,1.127.246.246,0,0,0,.269,1.4Z" transform="translate(5.404 10.269) rotate(180)" fill="#fec50c"/>
            <path id="Контур_12578" data-name="Контур 12578" d="M.269,1.4a.247.247,0,0,0,.269-.271A9.714,9.714,0,0,0,.269,0,9.714,9.714,0,0,0,0,1.127.246.246,0,0,0,.269,1.4Z" transform="translate(0 5.404) rotate(-90)" fill="#fec50c"/>
          </g>
          <g id="Сгруппировать_6652" data-name="Сгруппировать 6652" transform="matrix(0.924, 0.383, -0.383, 0.924, 4.483, 0.553)">
            <path id="a-2" data-name="a" d="M.269,1.4a.247.247,0,0,0,.269-.271A9.714,9.714,0,0,0,.269,0,9.714,9.714,0,0,0,0,1.127.246.246,0,0,0,.269,1.4Z" transform="translate(4.866 0)" fill="#fec50c"/>
            <path id="Контур_12579" data-name="Контур 12579" d="M.269,1.4a.247.247,0,0,0,.269-.271A9.714,9.714,0,0,0,.269,0,9.714,9.714,0,0,0,0,1.127.246.246,0,0,0,.269,1.4Z" transform="translate(10.269 4.866) rotate(90)" fill="#fec50c"/>
            <path id="Контур_12580" data-name="Контур 12580" d="M.269,1.4a.247.247,0,0,0,.269-.271A9.714,9.714,0,0,0,.269,0,9.714,9.714,0,0,0,0,1.127.246.246,0,0,0,.269,1.4Z" transform="translate(5.403 10.269) rotate(180)" fill="#fec50c"/>
            <path id="Контур_12581" data-name="Контур 12581" d="M.269,1.4a.247.247,0,0,0,.269-.271A9.714,9.714,0,0,0,.269,0,9.714,9.714,0,0,0,0,1.127.246.246,0,0,0,.269,1.4Z" transform="translate(0 5.403) rotate(-90)" fill="#fec50c"/>
          </g>
          <g id="Сгруппировать_6653" data-name="Сгруппировать 6653" transform="translate(7.262 0) rotate(45)">
            <path id="a-3" data-name="a" d="M.269,1.4a.247.247,0,0,0,.269-.271A9.714,9.714,0,0,0,.269,0,9.714,9.714,0,0,0,0,1.127.246.246,0,0,0,.269,1.4Z" transform="translate(4.866 0)" fill="#fec50c"/>
            <path id="Контур_12582" data-name="Контур 12582" d="M.269,1.4a.247.247,0,0,0,.269-.271A9.714,9.714,0,0,0,.269,0,9.714,9.714,0,0,0,0,1.127.246.246,0,0,0,.269,1.4Z" transform="translate(10.269 4.866) rotate(90)" fill="#fec50c"/>
            <path id="Контур_12583" data-name="Контур 12583" d="M.269,1.4a.247.247,0,0,0,.269-.271A9.714,9.714,0,0,0,.269,0,9.714,9.714,0,0,0,0,1.127.246.246,0,0,0,.269,1.4Z" transform="translate(5.404 10.269) rotate(180)" fill="#fec50c"/>
            <path id="Контур_12584" data-name="Контур 12584" d="M.269,1.4a.247.247,0,0,0,.269-.271A9.714,9.714,0,0,0,.269,0,9.714,9.714,0,0,0,0,1.127.246.246,0,0,0,.269,1.4Z" transform="translate(0 5.404) rotate(-90)" fill="#fec50c"/>
          </g>
          <g id="Сгруппировать_6654" data-name="Сгруппировать 6654" transform="matrix(0.383, 0.924, -0.924, 0.383, 10.04, 0.553)">
            <path id="a-4" data-name="a" d="M.269,1.4a.247.247,0,0,0,.269-.271A9.714,9.714,0,0,0,.269,0,9.714,9.714,0,0,0,0,1.127.246.246,0,0,0,.269,1.4Z" transform="translate(4.866 0)" fill="#fec50c"/>
            <path id="Контур_12585" data-name="Контур 12585" d="M.269,1.4a.247.247,0,0,0,.269-.271A9.714,9.714,0,0,0,.269,0,9.714,9.714,0,0,0,0,1.127.246.246,0,0,0,.269,1.4Z" transform="translate(10.269 4.866) rotate(90)" fill="#fec50c"/>
            <path id="Контур_12586" data-name="Контур 12586" d="M.269,1.4a.247.247,0,0,0,.269-.271A9.714,9.714,0,0,0,.269,0,9.714,9.714,0,0,0,0,1.127.246.246,0,0,0,.269,1.4Z" transform="translate(5.403 10.269) rotate(180)" fill="#fec50c"/>
            <path id="Контур_12587" data-name="Контур 12587" d="M.269,1.4a.247.247,0,0,0,.269-.271A9.714,9.714,0,0,0,.269,0,9.714,9.714,0,0,0,0,1.127.246.246,0,0,0,.269,1.4Z" transform="translate(0 5.403) rotate(-90)" fill="#fec50c"/>
          </g>
        </g>
        <g id="Сгруппировать_6658" data-name="Сгруппировать 6658" transform="translate(2.833 0) rotate(11.25)">
          <g id="b-2" data-name="b" transform="translate(2.127 2.127)">
            <path id="a-5" data-name="a" d="M.269,1.4a.247.247,0,0,0,.269-.271A9.714,9.714,0,0,0,.269,0,9.714,9.714,0,0,0,0,1.127.246.246,0,0,0,.269,1.4Z" transform="translate(4.866 0)" fill="#fec50c"/>
            <path id="Контур_12588" data-name="Контур 12588" d="M.269,1.4a.247.247,0,0,0,.269-.271A9.714,9.714,0,0,0,.269,0,9.714,9.714,0,0,0,0,1.127.246.246,0,0,0,.269,1.4Z" transform="translate(10.269 4.866) rotate(90)" fill="#fec50c"/>
            <path id="Контур_12589" data-name="Контур 12589" d="M.269,1.4a.247.247,0,0,0,.269-.271A9.714,9.714,0,0,0,.269,0,9.714,9.714,0,0,0,0,1.127.246.246,0,0,0,.269,1.4Z" transform="translate(5.404 10.269) rotate(180)" fill="#fec50c"/>
            <path id="Контур_12590" data-name="Контур 12590" d="M.269,1.4a.247.247,0,0,0,.269-.271A9.714,9.714,0,0,0,.269,0,9.714,9.714,0,0,0,0,1.127.246.246,0,0,0,.269,1.4Z" transform="translate(0 5.404) rotate(-90)" fill="#fec50c"/>
          </g>
          <g id="Сгруппировать_6655" data-name="Сгруппировать 6655" transform="matrix(0.924, 0.383, -0.383, 0.924, 4.483, 0.553)">
            <path id="a-6" data-name="a" d="M.269,1.4a.247.247,0,0,0,.269-.271A9.714,9.714,0,0,0,.269,0,9.714,9.714,0,0,0,0,1.127.246.246,0,0,0,.269,1.4Z" transform="translate(4.866 0)" fill="#fec50c"/>
            <path id="Контур_12591" data-name="Контур 12591" d="M.269,1.4a.247.247,0,0,0,.269-.271A9.714,9.714,0,0,0,.269,0,9.714,9.714,0,0,0,0,1.127.246.246,0,0,0,.269,1.4Z" transform="translate(10.269 4.866) rotate(90)" fill="#fec50c"/>
            <path id="Контур_12592" data-name="Контур 12592" d="M.269,1.4a.247.247,0,0,0,.269-.271A9.714,9.714,0,0,0,.269,0,9.714,9.714,0,0,0,0,1.127.246.246,0,0,0,.269,1.4Z" transform="translate(5.404 10.269) rotate(180)" fill="#fec50c"/>
            <path id="Контур_12593" data-name="Контур 12593" d="M.269,1.4a.247.247,0,0,0,.269-.271A9.714,9.714,0,0,0,.269,0,9.714,9.714,0,0,0,0,1.127.246.246,0,0,0,.269,1.4Z" transform="translate(0 5.404) rotate(-90)" fill="#fec50c"/>
          </g>
          <g id="Сгруппировать_6656" data-name="Сгруппировать 6656" transform="translate(7.262 0) rotate(45)">
            <path id="a-7" data-name="a" d="M.269,1.4a.247.247,0,0,0,.269-.271A9.714,9.714,0,0,0,.269,0,9.714,9.714,0,0,0,0,1.127.246.246,0,0,0,.269,1.4Z" transform="translate(4.866 0)" fill="#fec50c"/>
            <path id="Контур_12594" data-name="Контур 12594" d="M.269,1.4a.247.247,0,0,0,.269-.271A9.714,9.714,0,0,0,.269,0,9.714,9.714,0,0,0,0,1.127.246.246,0,0,0,.269,1.4Z" transform="translate(10.269 4.866) rotate(90)" fill="#fec50c"/>
            <path id="Контур_12595" data-name="Контур 12595" d="M.269,1.4a.247.247,0,0,0,.269-.271A9.714,9.714,0,0,0,.269,0,9.714,9.714,0,0,0,0,1.127.246.246,0,0,0,.269,1.4Z" transform="translate(5.404 10.269) rotate(180)" fill="#fec50c"/>
            <path id="Контур_12596" data-name="Контур 12596" d="M.269,1.4a.247.247,0,0,0,.269-.271A9.714,9.714,0,0,0,.269,0,9.714,9.714,0,0,0,0,1.127.246.246,0,0,0,.269,1.4Z" transform="translate(0 5.404) rotate(-90)" fill="#fec50c"/>
          </g>
          <g id="Сгруппировать_6657" data-name="Сгруппировать 6657" transform="matrix(0.383, 0.924, -0.924, 0.383, 10.04, 0.553)">
            <path id="a-8" data-name="a" d="M.269,1.4a.247.247,0,0,0,.269-.271A9.714,9.714,0,0,0,.269,0,9.714,9.714,0,0,0,0,1.127.246.246,0,0,0,.269,1.4Z" transform="translate(4.866 0)" fill="#fec50c"/>
            <path id="Контур_12597" data-name="Контур 12597" d="M.269,1.4a.247.247,0,0,0,.269-.271A9.714,9.714,0,0,0,.269,0,9.714,9.714,0,0,0,0,1.127.246.246,0,0,0,.269,1.4Z" transform="translate(10.269 4.866) rotate(90)" fill="#fec50c"/>
            <path id="Контур_12598" data-name="Контур 12598" d="M.269,1.4a.247.247,0,0,0,.269-.271A9.714,9.714,0,0,0,.269,0,9.714,9.714,0,0,0,0,1.127.246.246,0,0,0,.269,1.4Z" transform="translate(5.404 10.269) rotate(180)" fill="#fec50c"/>
            <path id="Контур_12599" data-name="Контур 12599" d="M.269,1.4a.247.247,0,0,0,.269-.271A9.714,9.714,0,0,0,.269,0,9.714,9.714,0,0,0,0,1.127.246.246,0,0,0,.269,1.4Z" transform="translate(0 5.404) rotate(-90)" fill="#fec50c"/>
          </g>
        </g>
      </g>
      <g id="Сгруппировать_6660" data-name="Сгруппировать 6660" transform="translate(15376.303 4109.287)">
        <path id="Контур_12600" data-name="Контур 12600" d="M498.5,355.733a1.021,1.021,0,0,0-.257.043c-.115.016-.225.055-.339.074l-.046.007-.077.007a.282.282,0,0,1,.008.064.2.2,0,0,1-.008.061.148.148,0,0,1-.033.051.179.179,0,0,1-.054.043.169.169,0,0,1-.064.016.166.166,0,0,1-.066-.008.186.186,0,0,1-.061-.037.53.53,0,0,1-.068.012.283.283,0,0,1-.064,0,.677.677,0,0,1-.068-.023.393.393,0,0,1-.064-.033.581.581,0,0,0-.226.181.273.273,0,0,0-.041.13.356.356,0,0,0,.035.17c.009.015.016-.056.044-.066a.432.432,0,0,1,.163-.081c.05-.025.043,0,.023.041,0,.02-.033.1,0,.059a1.59,1.59,0,0,1,.527-.1c.259-.027.519-.033.779-.036.244,0,.489.007.733.015a1.785,1.785,0,0,0,.349.01c.028-.007.071-.009.087-.025a.441.441,0,0,0-.171-.038h-.466a1.407,1.407,0,0,1-.387-.064c-.033-.013-.063-.044-.094-.011a.53.53,0,0,1-.4-.012c.057-.079.125-.148.188-.222-.051-.008-.1-.019-.15-.031.089-.061.171-.13.257-.2Z" transform="translate(-491.456 -349.099)" fill="#fec50c"/>
        <path id="Контур_12601" data-name="Контур 12601" d="M507.467,227.47c-.177.106-.312-.082-.46-.139-.106.057-.116.249-.214.34-.118.134-.263-.038-.252-.17-.141.119-.213.389-.441.353-.108-.088-.189-.274-.271-.063-.067.1-.247.25-.34.094-.029-.138-.1-.3-.173-.081a.291.291,0,0,1-.376.2c-.087-.071.07-.335-.041-.317-.166.11-.263.383-.495.361-.09-.1.055-.272-.044-.385-.117.15-.246.369-.448.385-.1-.079,0-.306-.058-.339-.207.124-.425.345-.686.276.1-.388.525-.524.882-.554a7.81,7.81,0,0,0,1.848-.158c.1-.058.326-.14.244-.275-.073-.106.189-.065.215-.189-.016-.157.12-.135.253-.149.6-.026,1.184.1,1.778.121a.4.4,0,0,1-.535.4c-.123.02-.309-.284-.272-.063-.025.116-.007.269-.113.347m-5.069-.593c.138.126.235-.024.364-.079a4.885,4.885,0,0,0,1.182-.668,1.748,1.748,0,0,1,.723-.489c.59-.178,1.218-.157,1.81-.322a5.082,5.082,0,0,1,1.86-1.193.4.4,0,0,0,.246-.294,2.966,2.966,0,0,1,.974-.964.91.91,0,0,1,.621-.114,1.036,1.036,0,0,1-.334.649c.143,0,.266-.093.41-.088.049.259-.23.394-.378.555.083.019.4.043.227.126a7.2,7.2,0,0,0-.675.435c.187.034.209.074.018.141-.1.07-.3.094-.321.231.142.087-.065.173-.145.2-.153.036-.313.1-.11.218a.4.4,0,0,1-.375.129c.041.131.1.278-.071.336a2.633,2.633,0,0,1-1.31.547,2.814,2.814,0,0,0,1.73-.391c.068-.08.422-.166.224-.233-.093-.039-.294-.082-.307-.153.277-.171.627-.11.926-.212.008-.1-.227-.07-.315-.092-.209-.017-.2-.07,0-.09a2.01,2.01,0,0,0,.757-.247c-.174-.081-.394-.01-.58-.076a4.7,4.7,0,0,0,.971-.359c.129-.143-.165-.1-.251-.1-.175.03-.256-.053-.057-.126a3.6,3.6,0,0,0,1.006-.775c.056-.081.133-.326-.047-.238-.237.079-.445.345-.714.262a5.911,5.911,0,0,0,1.4-1.45c.019-.164-.239-.182-.306-.053a4.391,4.391,0,0,1-1.087.923,6.846,6.846,0,0,0,1.066-1.378c.065-.147.239-.325.144-.488a.284.284,0,0,0-.422.14,5.786,5.786,0,0,1-.808,1.033,4.163,4.163,0,0,0,.615-1.834c0-.135-.028-.335-.212-.309-.146.026-.111.244-.171.354a4.444,4.444,0,0,1-.466,1.329,2.94,2.94,0,0,0,.086-1.114c-.038-.165-.3-.094-.27.069a5.816,5.816,0,0,1-2.81,3.832,6.058,6.058,0,0,1-2.1.709,4.884,4.884,0,0,0-.6.085c-.458.351-.735.939-1.315,1.123-.26.129-.6.155-.784.4a.209.209,0,0,0-.019.1" transform="translate(-496.617 -219.991)" fill="#fec50c"/>
        <path id="Контур_12602" data-name="Контур 12602" d="M391.648,225.375a3.246,3.246,0,0,1-.246.473,1.88,1.88,0,0,0-1.23-.311,1.524,1.524,0,0,1-.991-.3,7.338,7.338,0,0,0-.827-.718,2.035,2.035,0,0,1-.809-.373c-.494-.4-.777-1-1.26-1.416a2.813,2.813,0,0,0-.3-.238c-.1.024-.054.235-.174.128-.065-.046-.228-.051-.243.014a1.335,1.335,0,0,1,.316.665c-.1.01-.28-.021-.33.016a2.059,2.059,0,0,0,.5.52c-.093.015-.277.007-.313.044a1.436,1.436,0,0,0,.654.359c.052.068-.076.2.032.258.062.025.267.068.126.139a.115.115,0,0,0,.063.214c.078.04.255.05.268.119-.07.071-.286.155-.1.221a1.271,1.271,0,0,0,.565.164c-.1.083-.22.13-.322.208a7.776,7.776,0,0,0,1.452.609,4.622,4.622,0,0,0,.6.166,4.94,4.94,0,0,1-1.714-.452c-.281-.123-.564-.242-.852-.349.126-.066.272-.082.4-.139a2.353,2.353,0,0,1-.808-.222c.037-.065.176-.068.252-.1.144-.035.234-.077.03-.089a1.914,1.914,0,0,1-.622-.155c.012-.074.2-.048.278-.08a.578.578,0,0,0,.283-.1c-.318-.132-.733-.038-.982-.319-.057-.107.178-.021.245-.039a1.3,1.3,0,0,0,.516-.015,3.806,3.806,0,0,1-1.311-.769c-.039-.06-.157-.225-.062-.246.275.036.473.336.767.289.039-.053-.171-.139-.223-.214a5.608,5.608,0,0,1-1.144-1.248c-.021-.161.232-.185.3-.061a4.889,4.889,0,0,0,1.032.9c.145.07-.083-.083-.113-.139a7.3,7.3,0,0,1-1-1.416c-.047-.093-.125-.261.016-.311a.277.277,0,0,1,.353.147,6.709,6.709,0,0,0,.826,1.056,4.207,4.207,0,0,1-.616-1.829c.007-.127.015-.32.188-.315.145-.022.122.164.17.252a4.975,4.975,0,0,0,.492,1.431,3.214,3.214,0,0,1-.095-1.091.141.141,0,0,1,.237-.083c.071.174.086.388.15.574a5.8,5.8,0,0,0,2.271,3.11,5.981,5.981,0,0,0,3.014,1.035c.1.008.194.011.292.017" transform="translate(-384.132 -220.121)" fill="#fec50c"/>
        <circle id="Эллипс_234" data-name="Эллипс 234" cx="0.058" cy="0.058" r="0.058" transform="translate(6.094 6.807)" fill="#fec50c"/>
        <circle id="Эллипс_235" data-name="Эллипс 235" cx="0.024" cy="0.024" r="0.024" transform="translate(6.124 6.832)" fill="#fec50c" stroke="#00afca" stroke-width="0.191"/>
      </g>
    </g>
    <g id="Сгруппировать_6664" data-name="Сгруппировать 6664" transform="translate(15312.92 4130.663)">
      <g id="f">
        <g id="e">
          <path id="Контур_12603" data-name="Контур 12603" d="M33.694,27.894s-.211-.178-.283-.089c-.115.143.355.857.355,1.109,0,.413-.275.525-.615.584a2.417,2.417,0,0,1-.6-.017.258.258,0,0,1,.233-.129.491.491,0,0,1-.265-.446c0-.355.146-.5.146-.9a1.181,1.181,0,0,0-.182-.5.432.432,0,0,1,.391.568.157.157,0,0,0,.138-.042.238.238,0,0,1-.063.209c.04.021.07.009.133,0a.29.29,0,0,1-.146.208.35.35,0,0,1,.467.338.255.255,0,0,1-.221.274.223.223,0,0,1-.116-.036.18.18,0,0,0,.011.146c-.08-.021-.131-.069-.095-.168a.2.2,0,0,1-.144-.066.171.171,0,0,1,.144-.066c-.045-.092.005-.144.078-.186,0,0-.046.186.072.186.053,0,.1-.017.1-.1a.171.171,0,0,0-.2-.156c-.138.006-.249.095-.249.315,0,.2.164.3.379.31a.3.3,0,0,0,.341-.3c0-.267-.385-.875-.385-1.113a.294.294,0,0,1,.317-.278.587.587,0,0,1,.375.2l-.12.15Z" transform="translate(-32.375 -27.5)" fill="#fec50c"/>
          <path id="d" d="M31.363,74.734a.7.7,0,0,1-.715.675A.578.578,0,0,1,30,74.824a.987.987,0,0,1,.121-.486s.7-1.454.971-2.016a.593.593,0,0,0,.045-.267.355.355,0,0,0-.709.006c0,.222.115.321.233.321.146,0,.2-.06.2-.162,0-.071-.034-.1-.084-.1-.125,0-.09.168-.09.168a.115.115,0,0,1-.084-.156.08.08,0,1,1,0-.138.112.112,0,0,1,.094-.163.168.168,0,0,0-.012.1.255.255,0,0,1,.337.252.361.361,0,0,1-.455.372.211.211,0,0,1,.114.18.415.415,0,0,0-.114-.024.382.382,0,0,1,.081.234c-.055-.025-.106-.071-.177-.042a.431.431,0,0,1-.371.588.719.719,0,0,0,.189-.468c0-.517-.144-.6-.144-.963a.531.531,0,0,1,.23-.423v.006a.307.307,0,0,1-.2-.145,1.383,1.383,0,0,1,.748.007.555.555,0,0,1,.4.264.8.8,0,0,1,0,.636c-.137.288-.786,1.662-.988,2.094a.686.686,0,0,0-.069.294.366.366,0,0,0,.38.357.322.322,0,0,0,.332-.282c0-.1-.054-.159-.132-.159-.186,0-.175.158-.138.258a.234.234,0,0,1-.165-.243.3.3,0,0,1-.186-.105.233.233,0,0,1,.186-.1c-.037-.152.065-.216.165-.252-.032.112-.052.24.138.24a.35.35,0,0,1,.311.114c0-.12.015-.594.015-.594.008-.178-.238-.173-.4-.12a.37.37,0,0,1,.461-.288.221.221,0,0,1-.141-.216A.565.565,0,0,1,31.319,73l.044,1.739Z" transform="translate(-29.999 -69.518)" fill="#fec50c"/>
          <path id="Контур_12604" data-name="Контур 12604" d="M31.363-160.739a.7.7,0,0,0-.715-.675.578.578,0,0,0-.649.585.987.987,0,0,0,.121.486s.7,1.454.971,2.016a.593.593,0,0,1,.045.267.362.362,0,0,1-.359.333.363.363,0,0,1-.35-.339c0-.222.115-.321.233-.321.146,0,.2.06.2.162,0,.071-.034.1-.084.1-.125,0-.09-.168-.09-.168a.115.115,0,0,0-.084.156.225.225,0,0,0-.121.072.227.227,0,0,0,.121.066.112.112,0,0,0,.094.163.168.168,0,0,1-.012-.1.255.255,0,0,0,.337-.252.361.361,0,0,0-.455-.372.211.211,0,0,0,.114-.18.416.416,0,0,1-.114.024.382.382,0,0,0,.081-.234c-.055.025-.106.071-.177.042a.431.431,0,0,0-.371-.588.719.719,0,0,1,.189.468c0,.517-.144.6-.144.963a.531.531,0,0,0,.23.423v-.006a.307.307,0,0,0-.2.145,1.383,1.383,0,0,0,.748-.007.555.555,0,0,0,.4-.264.8.8,0,0,0,0-.636c-.137-.288-.786-1.662-.988-2.094a.687.687,0,0,1-.069-.294.366.366,0,0,1,.38-.357.322.322,0,0,1,.332.282c0,.1-.054.159-.132.159-.186,0-.175-.158-.138-.258a.234.234,0,0,0-.165.243.3.3,0,0,0-.186.105.233.233,0,0,0,.186.1c-.037.152.065.216.165.252-.032-.112-.052-.24.138-.24a.35.35,0,0,0,.311-.114c0,.12.015.594.015.594.008.178-.238.173-.4.12a.37.37,0,0,0,.461.288.221.221,0,0,0-.141.216.565.565,0,0,0,.224.407l.044-1.739Z" transform="translate(-29.999 167.293)" fill="#fec50c"/>
        </g>
        <g id="Сгруппировать_6661" data-name="Сгруппировать 6661" transform="translate(2.64 9.836) rotate(180)">
          <path id="Контур_12605" data-name="Контур 12605" d="M1.21,1.618S1,1.8.927,1.706C.812,1.563,1.282.849,1.282.6c0-.413-.275-.525-.615-.584a2.416,2.416,0,0,0-.6.017A.258.258,0,0,0,.3.16.491.491,0,0,0,.036.606c0,.355.146.5.146.9a1.181,1.181,0,0,1-.182.5.432.432,0,0,0,.391-.568.157.157,0,0,1,.138.042.238.238,0,0,0-.063-.209c.04-.021.07-.009.133,0a.29.29,0,0,0-.146-.208A.35.35,0,0,0,.919.736.255.255,0,0,0,.7.462.223.223,0,0,0,.582.5.18.18,0,0,1,.593.352C.513.373.462.421.5.52A.2.2,0,0,0,.355.586.171.171,0,0,0,.5.652C.453.744.5.8.576.838c0,0-.046-.186.072-.186.053,0,.1.017.1.1A.171.171,0,0,1,.552.9C.414.9.3.809.3.589c0-.2.164-.3.379-.31a.3.3,0,0,1,.341.3c0,.267-.385.875-.385,1.113a.294.294,0,0,0,.317.278.587.587,0,0,0,.375-.2l-.12-.15Z" transform="translate(0.109 7.824)" fill="#fec50c"/>
          <path id="d-2" data-name="d" d="M1.364.675A.7.7,0,0,0,.649,0,.578.578,0,0,0,0,.585a.987.987,0,0,0,.121.486s.7,1.454.971,2.016a.593.593,0,0,1,.045.267.362.362,0,0,1-.359.333.363.363,0,0,1-.35-.339c0-.222.115-.321.233-.321.146,0,.2.06.2.162,0,.071-.034.1-.084.1-.125,0-.09-.168-.09-.168a.115.115,0,0,0-.084.156.225.225,0,0,0-.121.072.227.227,0,0,0,.121.066A.112.112,0,0,0,.7,3.581a.168.168,0,0,1-.012-.1.255.255,0,0,0,.337-.252.361.361,0,0,0-.455-.372.211.211,0,0,0,.114-.18A.416.416,0,0,1,.572,2.7a.382.382,0,0,0,.081-.234c-.055.025-.106.071-.177.042A.431.431,0,0,0,.1,1.917a.719.719,0,0,1,.189.468c0,.517-.144.6-.144.963a.531.531,0,0,0,.23.423V3.765a.307.307,0,0,0-.2.145A1.383,1.383,0,0,0,.925,3.9a.555.555,0,0,0,.4-.264A.8.8,0,0,0,1.32,3C1.182,2.715.534,1.341.332.909A.686.686,0,0,1,.263.615.366.366,0,0,1,.643.258.322.322,0,0,1,.976.54C.976.639.922.7.844.7.658.7.669.541.706.441A.234.234,0,0,0,.542.684.3.3,0,0,0,.356.789a.233.233,0,0,0,.186.1c-.037.152.065.216.165.252C.675,1.031.654.9.844.9A.35.35,0,0,0,1.155.789c0,.12.015.594.015.594.008.178-.238.173-.4.12a.37.37,0,0,0,.461.288.221.221,0,0,0-.141.216.565.565,0,0,0,.224.407L1.364.675Z" transform="translate(0 3.945)" fill="#fec50c"/>
          <path id="Контур_12606" data-name="Контур 12606" d="M1.364,3.283a.7.7,0,0,1-.715.675A.578.578,0,0,1,0,3.373a.987.987,0,0,1,.121-.486s.7-1.454.971-2.016A.593.593,0,0,0,1.137.6.362.362,0,0,0,.778.271.363.363,0,0,0,.428.61c0,.222.115.321.233.321.146,0,.2-.06.2-.162C.865.7.831.667.781.667c-.125,0-.09.168-.09.168A.115.115,0,0,1,.608.679.225.225,0,0,1,.486.607.227.227,0,0,1,.608.541.112.112,0,0,1,.7.377a.168.168,0,0,0-.012.1.255.255,0,0,1,.337.252A.361.361,0,0,1,.572,1.1a.211.211,0,0,1,.114.18.416.416,0,0,0-.114-.024.382.382,0,0,1,.081.234C.6,1.47.546,1.423.476,1.453A.431.431,0,0,1,.1,2.041a.719.719,0,0,0,.189-.468C.293,1.056.15.969.15.61A.531.531,0,0,1,.38.187V.193a.307.307,0,0,1-.2-.145A1.383,1.383,0,0,1,.925.055a.555.555,0,0,1,.4.264.8.8,0,0,1,0,.636C1.182,1.242.534,2.617.332,3.049a.686.686,0,0,0-.069.294.366.366,0,0,0,.38.357.322.322,0,0,0,.332-.282c0-.1-.054-.159-.132-.159-.186,0-.175.158-.138.258a.234.234,0,0,1-.165-.243.3.3,0,0,1-.186-.105.233.233,0,0,1,.186-.1C.5,2.915.606,2.85.706,2.815c-.032.112-.052.24.138.24a.35.35,0,0,1,.311.114c0-.12.015-.594.015-.594.008-.178-.238-.173-.4-.12a.37.37,0,0,1,.461-.288A.221.221,0,0,1,1.1,1.951a.565.565,0,0,1,.224-.407l.044,1.739Z" transform="translate(0 0)" fill="#fec50c"/>
        </g>
      </g>
      <g id="Сгруппировать_6663" data-name="Сгруппировать 6663" transform="translate(0 9.74)">
        <g id="e-2" data-name="e">
          <path id="Контур_12607" data-name="Контур 12607" d="M33.694-71.619s-.211.178-.283.089c-.115-.143.355-.857.355-1.109,0-.413-.275-.525-.615-.584a2.417,2.417,0,0,0-.6.017.258.258,0,0,0,.233.129.491.491,0,0,0-.265.446c0,.355.146.5.146.9a1.181,1.181,0,0,1-.182.5.432.432,0,0,0,.391-.568.157.157,0,0,1,.138.042.238.238,0,0,0-.063-.209c.04-.021.07-.009.133,0a.29.29,0,0,0-.146-.208A.35.35,0,0,0,33.4-72.5a.255.255,0,0,0-.221-.274.223.223,0,0,0-.116.036.18.18,0,0,1,.011-.146c-.08.021-.131.069-.095.168a.2.2,0,0,0-.144.066.171.171,0,0,0,.144.066c-.045.092.005.144.078.186,0,0-.046-.186.072-.186.053,0,.1.017.1.1a.171.171,0,0,1-.2.156c-.138-.006-.249-.095-.249-.315,0-.2.164-.3.379-.31a.3.3,0,0,1,.341.3c0,.267-.385.875-.385,1.113a.294.294,0,0,0,.317.278.587.587,0,0,0,.375-.2l-.12-.15Z" transform="translate(-32.375 81.061)" fill="#fec50c"/>
          <path id="d-3" data-name="d" d="M31.363-160.739a.7.7,0,0,0-.715-.675.578.578,0,0,0-.649.585.987.987,0,0,0,.121.486s.7,1.454.971,2.016a.593.593,0,0,1,.045.267.362.362,0,0,1-.359.333.363.363,0,0,1-.35-.339c0-.222.115-.321.233-.321.146,0,.2.06.2.162,0,.071-.034.1-.084.1-.125,0-.09-.168-.09-.168a.115.115,0,0,0-.084.156.225.225,0,0,0-.121.072.227.227,0,0,0,.121.066.112.112,0,0,0,.094.163.168.168,0,0,1-.012-.1.255.255,0,0,0,.337-.252.361.361,0,0,0-.455-.372.211.211,0,0,0,.114-.18.416.416,0,0,1-.114.024.382.382,0,0,0,.081-.234c-.055.025-.106.071-.177.042a.431.431,0,0,0-.371-.588.719.719,0,0,1,.189.468c0,.517-.144.6-.144.963a.531.531,0,0,0,.23.423v-.006a.307.307,0,0,0-.2.145,1.383,1.383,0,0,0,.748-.007.555.555,0,0,0,.4-.264.8.8,0,0,0,0-.636c-.137-.288-.786-1.662-.988-2.094a.687.687,0,0,1-.069-.294.366.366,0,0,1,.38-.357.322.322,0,0,1,.332.282c0,.1-.054.159-.132.159-.186,0-.175-.158-.138-.258a.234.234,0,0,0-.165.243.3.3,0,0,0-.186.105.233.233,0,0,0,.186.1c-.037.152.065.216.165.252-.032-.112-.052-.24.138-.24a.35.35,0,0,0,.311-.114c0,.12.015.594.015.594.008.178-.238.173-.4.12a.37.37,0,0,0,.461.288.221.221,0,0,0-.141.216.565.565,0,0,0,.224.407l.044-1.739Z" transform="translate(-29.999 165.359)" fill="#fec50c"/>
          <path id="Контур_12608" data-name="Контур 12608" d="M31.363,74.734a.7.7,0,0,1-.715.675A.578.578,0,0,1,30,74.824a.987.987,0,0,1,.121-.486s.7-1.454.971-2.016a.593.593,0,0,0,.045-.267.355.355,0,0,0-.709.006c0,.222.115.321.233.321.146,0,.2-.06.2-.162,0-.071-.034-.1-.084-.1-.125,0-.09.168-.09.168a.115.115,0,0,1-.084-.156.08.08,0,1,1,0-.138.112.112,0,0,1,.094-.163.168.168,0,0,0-.012.1.255.255,0,0,1,.337.252.361.361,0,0,1-.455.372.211.211,0,0,1,.114.18.415.415,0,0,0-.114-.024.382.382,0,0,1,.081.234c-.055-.025-.106-.071-.177-.042a.431.431,0,0,1-.371.588.719.719,0,0,0,.189-.468c0-.517-.144-.6-.144-.963a.531.531,0,0,1,.23-.423v.006a.307.307,0,0,1-.2-.145,1.383,1.383,0,0,1,.748.007.555.555,0,0,1,.4.264.8.8,0,0,1,0,.636c-.137.288-.786,1.662-.988,2.094a.686.686,0,0,0-.069.294.366.366,0,0,0,.38.357.322.322,0,0,0,.332-.282c0-.1-.054-.159-.132-.159-.186,0-.175.158-.138.258a.234.234,0,0,1-.165-.243.3.3,0,0,1-.186-.105.233.233,0,0,1,.186-.1c-.037-.152.065-.216.165-.252-.032.112-.052.24.138.24a.35.35,0,0,1,.311.114c0-.12.015-.594.015-.594.008-.178-.238-.173-.4-.12a.37.37,0,0,1,.461-.288.221.221,0,0,1-.141-.216A.565.565,0,0,1,31.319,73l.044,1.739Z" transform="translate(-29.999 -71.451)" fill="#fec50c"/>
        </g>
        <g id="Сгруппировать_6662" data-name="Сгруппировать 6662" transform="translate(2.64 9.836) rotate(180)">
          <path id="Контур_12609" data-name="Контур 12609" d="M1.21.394S1,.217.927.306c-.115.143.355.857.355,1.109,0,.413-.275.525-.615.584a2.416,2.416,0,0,1-.6-.017A.258.258,0,0,1,.3,1.852a.491.491,0,0,1-.265-.446c0-.355.146-.5.146-.9A1.181,1.181,0,0,0,0,0,.432.432,0,0,1,.391.568.157.157,0,0,0,.528.526.238.238,0,0,1,.465.735C.5.756.534.743.6.73A.29.29,0,0,1,.452.938a.35.35,0,0,1,.467.338A.255.255,0,0,1,.7,1.55a.223.223,0,0,1-.116-.036.18.18,0,0,0,.011.146C.513,1.639.462,1.591.5,1.492a.2.2,0,0,1-.144-.066A.171.171,0,0,1,.5,1.36C.453,1.268.5,1.216.576,1.174c0,0-.046.186.072.186.053,0,.1-.017.1-.1a.171.171,0,0,0-.2-.156C.414,1.114.3,1.2.3,1.423c0,.2.164.3.379.31a.3.3,0,0,0,.341-.3C1.023,1.167.638.558.638.321A.294.294,0,0,1,.955.043a.587.587,0,0,1,.375.2l-.12.15Z" transform="translate(0.109 0)" fill="#fec50c"/>
          <path id="d-4" data-name="d" d="M1.364,3.283a.7.7,0,0,1-.715.675A.578.578,0,0,1,0,3.373a.987.987,0,0,1,.121-.486s.7-1.454.971-2.016A.593.593,0,0,0,1.137.6.362.362,0,0,0,.778.271.363.363,0,0,0,.428.61c0,.222.115.321.233.321.146,0,.2-.06.2-.162C.865.7.831.667.781.667c-.125,0-.09.168-.09.168A.115.115,0,0,1,.608.679.225.225,0,0,1,.486.607.227.227,0,0,1,.608.541.112.112,0,0,1,.7.377a.168.168,0,0,0-.012.1.255.255,0,0,1,.337.252A.361.361,0,0,1,.572,1.1a.211.211,0,0,1,.114.18.416.416,0,0,0-.114-.024.382.382,0,0,1,.081.234C.6,1.47.546,1.423.476,1.453A.431.431,0,0,1,.1,2.041a.719.719,0,0,0,.189-.468C.293,1.056.15.969.15.61A.531.531,0,0,1,.38.187V.193a.307.307,0,0,1-.2-.145A1.383,1.383,0,0,1,.925.055a.555.555,0,0,1,.4.264.8.8,0,0,1,0,.636C1.182,1.242.534,2.617.332,3.049a.686.686,0,0,0-.069.294.366.366,0,0,0,.38.357.322.322,0,0,0,.332-.282c0-.1-.054-.159-.132-.159-.186,0-.175.158-.138.258a.234.234,0,0,1-.165-.243.3.3,0,0,1-.186-.105.233.233,0,0,1,.186-.1C.5,2.915.606,2.85.706,2.815c-.032.112-.052.24.138.24a.35.35,0,0,1,.311.114c0-.12.015-.594.015-.594.008-.178-.238-.173-.4-.12a.37.37,0,0,1,.461-.288A.221.221,0,0,1,1.1,1.951a.565.565,0,0,1,.224-.407l.044,1.739Z" transform="translate(0 1.934)" fill="#fec50c"/>
          <path id="Контур_12610" data-name="Контур 12610" d="M1.364.675A.7.7,0,0,0,.649,0,.578.578,0,0,0,0,.585a.987.987,0,0,0,.121.486s.7,1.454.971,2.016a.593.593,0,0,1,.045.267.362.362,0,0,1-.359.333.363.363,0,0,1-.35-.339c0-.222.115-.321.233-.321.146,0,.2.06.2.162,0,.071-.034.1-.084.1-.125,0-.09-.168-.09-.168a.115.115,0,0,0-.084.156.225.225,0,0,0-.121.072.227.227,0,0,0,.121.066A.112.112,0,0,0,.7,3.581a.168.168,0,0,1-.012-.1.255.255,0,0,0,.337-.252.361.361,0,0,0-.455-.372.211.211,0,0,0,.114-.18A.416.416,0,0,1,.572,2.7a.382.382,0,0,0,.081-.234c-.055.025-.106.071-.177.042A.431.431,0,0,0,.1,1.917a.719.719,0,0,1,.189.468c0,.517-.144.6-.144.963a.531.531,0,0,0,.23.423V3.765a.307.307,0,0,0-.2.145A1.383,1.383,0,0,0,.925,3.9a.555.555,0,0,0,.4-.264A.8.8,0,0,0,1.32,3C1.182,2.715.534,1.341.332.909A.686.686,0,0,1,.263.615.366.366,0,0,1,.643.258.322.322,0,0,1,.976.54C.976.639.922.7.844.7.658.7.669.541.706.441A.234.234,0,0,0,.542.684.3.3,0,0,0,.356.789a.233.233,0,0,0,.186.1c-.037.152.065.216.165.252C.675,1.031.654.9.844.9A.35.35,0,0,0,1.155.789c0,.12.015.594.015.594.008.178-.238.173-.4.12a.37.37,0,0,0,.461.288.221.221,0,0,0-.141.216.565.565,0,0,0,.224.407L1.364.675Z" transform="translate(0 5.879)" fill="#fec50c"/>
        </g>
      </g>
    </g>
  </g>
</svg>
