<svg xmlns="http://www.w3.org/2000/svg" xmlns:xlink="http://www.w3.org/1999/xlink" width="431" height="57.227" viewBox="0 0 431 57.227">
  <defs>
    <linearGradient id="linear-gradient" x1="0.851" y1="0.851" x2="0.149" y2="0.149" gradientUnits="objectBoundingBox">
      <stop offset="0" stop-color="#cfa23d"/>
      <stop offset="0.251" stop-color="#e2bd48"/>
      <stop offset="0.529" stop-color="#ffd46e"/>
      <stop offset="1" stop-color="#d7a536"/>
    </linearGradient>
  </defs>
  <g id="Сгруппировать_6753" data-name="Сгруппировать 6753" transform="translate(-714 -23)">
    <text id="Grand_Adore" data-name="Grand Adore" transform="translate(795 69)" fill="#0e0f11" font-size="45" font-family="Couture-Bold, Couture" font-weight="700"><tspan x="0" y="0">GRAND ADORE</tspan></text>
    <g id="Сгруппировать_6745" data-name="Сгруппировать 6745" transform="translate(62 23)">
      <g id="Слой_x0020_1" transform="translate(652.01)">
        <path id="Контур_12625" data-name="Контур 12625" d="M.375,27.947Q8.442,13.973,16.51,0h33.03l5.246,9.089c3.351,5.807,6.728,11.657,11.127,19.268l.148.256Q57.8,42.916,49.541,57.227H16.51L8.246,42.921-.01,28.611l.385-.665ZM10.554,15.642,3.064,28.614,18.043,54.559H48.008L62.987,28.614,48.008,2.67H18.043L10.554,15.642Z" fill="url(#linear-gradient)"/>
      </g>
      <path id="Контур_12626" data-name="Контур 12626" d="M20.534-23.269c-3.358,0-7.208-.027-9.965-.027v3.6a3.177,3.177,0,0,0,.764.027c1.092,0,3.085-.027,3.959-.027h.437a5.539,5.539,0,0,1-5.16,2.949,5.855,5.855,0,0,1-5.9-5.9,5.873,5.873,0,0,1,5.9-5.9,5.748,5.748,0,0,1,5.051,2.867c1.911-.956,2.048-1.037,3.768-1.911a10.225,10.225,0,0,0-8.818-5.133A10.1,10.1,0,0,0,.5-22.641a10.108,10.108,0,0,0,10.074,10.1,10.014,10.014,0,0,0,8.846-5.242C20.425-19.091,20.534-22.7,20.534-23.269Zm13.214,3.194a5.838,5.838,0,0,0,4.641-6.034c0-3.167-1.884-6.252-6.8-6.252H22.8v19.521h4.314v-7.017h2.1l4.914,7.017h5.242l-5.46-7.235Zm-3.3-8.955c2.048,0,3.74.382,3.74,2.921,0,2.484-1.693,2.949-3.74,2.949H27.114v-5.87Z" transform="translate(665.506 51.715)" fill="#0e0f11"/>
    </g>
  </g>
</svg>
