<svg xmlns="http://www.w3.org/2000/svg" xmlns:xlink="http://www.w3.org/1999/xlink" width="26" height="26" viewBox="0 0 26 26">
  <defs>
    <clipPath id="clip-path">
      <rect id="Прямоугольник_2165" data-name="Прямоугольник 2165" width="26" height="26" transform="translate(0 0)" fill="#f2f2f2"/>
    </clipPath>
  </defs>
  <g id="map-icon" transform="translate(0 0)" clip-path="url(#clip-path)">
    <g id="_001-placeholder" data-name="001-placeholder" transform="translate(3.535 -0.25)">
      <g id="Сгруппировать_6722" data-name="Сгруппировать 6722" transform="translate(0)">
        <g id="Сгруппировать_6721" data-name="Сгруппировать 6721">
          <path id="Контур_12615" data-name="Контур 12615" d="M13.349,0a9.194,9.194,0,0,0-7.82,14.026l7.3,11.759a.766.766,0,0,0,.651.362h.006a.766.766,0,0,0,.651-.372L21.245,13.9A9.195,9.195,0,0,0,13.349,0ZM19.93,13.116,13.465,23.91,6.831,13.219a7.666,7.666,0,1,1,13.1-.1Z" transform="translate(-4.156)"/>
        </g>
      </g>
      <g id="Сгруппировать_6724" data-name="Сгруппировать 6724" transform="translate(4.596 4.596)">
        <g id="Сгруппировать_6723" data-name="Сгруппировать 6723">
          <path id="Контур_12616" data-name="Контур 12616" d="M13.674,4.922a4.6,4.6,0,1,0,4.6,4.6A4.6,4.6,0,0,0,13.674,4.922Zm0,7.671a3.074,3.074,0,1,1,3.069-3.074A3.077,3.077,0,0,1,13.674,12.593Z" transform="translate(-9.078 -4.922)"/>
        </g>
      </g>
    </g>
  </g>
</svg>
