<svg xmlns="http://www.w3.org/2000/svg" xmlns:xlink="http://www.w3.org/1999/xlink" width="32.636" height="32.636" viewBox="0 0 32.636 32.636">
  <defs>
    <clipPath id="clip-path">
      <rect id="Прямоугольник_2080" data-name="Прямоугольник 2080" width="32.636" height="32.636" transform="translate(0 0)" stroke="#707070" stroke-width="1"/>
    </clipPath>
  </defs>
  <g id="personal-user" clip-path="url(#clip-path)">
    <path id="_001-user" data-name="001-user" d="M25.576,23.329l-5.2-2.6a1.431,1.431,0,0,1-.795-1.286V17.606c.125-.152.256-.326.391-.517a12.448,12.448,0,0,0,1.607-3.154,2.158,2.158,0,0,0,1.266-1.967V9.791A2.169,2.169,0,0,0,22.3,8.363V5.47a4.876,4.876,0,0,0-1.138-3.549C20.049.646,18.236,0,15.777,0s-4.272.646-5.389,1.92A4.877,4.877,0,0,0,9.25,5.47V8.363a2.169,2.169,0,0,0-.544,1.428v2.176a2.163,2.163,0,0,0,.814,1.691,11.416,11.416,0,0,0,1.905,3.936v1.8a1.437,1.437,0,0,1-.749,1.262L5.824,23.3a4.9,4.9,0,0,0-2.558,4.309v1.761c0,2.582,8.184,3.264,12.511,3.264s12.511-.682,12.511-3.264V27.717A4.881,4.881,0,0,0,25.576,23.329ZM27.2,29.373c0,.738-4.032,2.176-11.423,2.176S4.355,30.111,4.355,29.373V27.611a3.816,3.816,0,0,1,1.99-3.353L11.2,21.612a2.526,2.526,0,0,0,1.316-2.218V17.208l-.127-.151a10.269,10.269,0,0,1-1.855-3.843L10.483,13l-.185-.12a1.085,1.085,0,0,1-.5-.912V9.791a1.074,1.074,0,0,1,.364-.8l.179-.162V5.439l0-.071a3.777,3.777,0,0,1,.873-2.731c.9-1.028,2.44-1.549,4.571-1.549s3.659.517,4.561,1.538a3.829,3.829,0,0,1,.883,2.742l0,3.459.18.162a1.072,1.072,0,0,1,.364.8v2.176A1.082,1.082,0,0,1,20.987,13l-.271.083-.087.269a11.387,11.387,0,0,1-1.542,3.108,7.157,7.157,0,0,1-.455.587L18.5,17.2v2.244a2.512,2.512,0,0,0,1.4,2.259l5.2,2.6A3.8,3.8,0,0,1,27.2,27.717Z" transform="translate(0.541 0)"/>
  </g>
</svg>
