<svg xmlns="http://www.w3.org/2000/svg" xmlns:xlink="http://www.w3.org/1999/xlink" width="20" height="20" viewBox="0 0 20 20">
  <defs>
    <clipPath id="clip-path">
      <rect id="Прямоугольник_2100" data-name="Прямоугольник 2100" width="20" height="20" transform="translate(-0.059 0)" fill="#f2f2f2"/>
    </clipPath>
  </defs>
  <g id="Группа_масок_62" data-name="Группа масок 62" transform="translate(0.059 0)" clip-path="url(#clip-path)">
    <g id="_003-phone-call" data-name="003-phone-call" transform="translate(0.228 0.153)">
      <g id="Сгруппировать_6409" data-name="Сгруппировать 6409" transform="translate(0 0)">
        <path id="Контур_12543" data-name="Контур 12543" d="M15.356,12.473a1.91,1.91,0,0,0-1.386-.635,1.975,1.975,0,0,0-1.4.631l-1.3,1.291c-.107-.057-.213-.111-.316-.164-.148-.074-.287-.143-.406-.217A14.08,14.08,0,0,1,7.178,10.3,8.306,8.306,0,0,1,6.071,8.558c.336-.307.648-.627.951-.935.115-.115.23-.234.344-.348a1.881,1.881,0,0,0,0-2.837L6.247,3.319c-.127-.127-.258-.258-.381-.389-.246-.254-.5-.517-.771-.763a1.941,1.941,0,0,0-1.373-.6,2.008,2.008,0,0,0-1.394.6l-.008.008L.926,3.581a3,3,0,0,0-.89,1.906A7.186,7.186,0,0,0,.561,8.529,17.651,17.651,0,0,0,3.7,13.76a19.292,19.292,0,0,0,6.424,5.03,10.009,10.009,0,0,0,3.608,1.066c.086,0,.176.008.258.008a3.089,3.089,0,0,0,2.365-1.017c0-.008.012-.012.016-.02a9.32,9.32,0,0,1,.717-.742c.176-.168.357-.344.533-.529a2.045,2.045,0,0,0,.619-1.418,1.97,1.97,0,0,0-.631-1.406Zm1.468,4.317s0,0,0,0c-.16.172-.324.328-.5.5a10.78,10.78,0,0,0-.791.82,1.976,1.976,0,0,1-1.541.652c-.061,0-.127,0-.189,0a8.891,8.891,0,0,1-3.2-.959,18.21,18.21,0,0,1-6.051-4.739A16.643,16.643,0,0,1,1.6,8.144a5.853,5.853,0,0,1-.459-2.566A1.882,1.882,0,0,1,1.709,4.36l1.4-1.4a.932.932,0,0,1,.623-.291.877.877,0,0,1,.6.287l.012.012c.25.234.488.476.738.734.127.131.258.262.389.4L6.587,5.221a.782.782,0,0,1,0,1.271c-.119.119-.234.238-.353.353-.344.353-.672.681-1.029,1-.008.008-.016.012-.02.02a.836.836,0,0,0-.213.931l.012.037a8.985,8.985,0,0,0,1.324,2.16l0,0a15.046,15.046,0,0,0,3.64,3.312,5.6,5.6,0,0,0,.5.275c.148.074.287.143.406.217.016.008.033.02.049.029a.889.889,0,0,0,.406.1.877.877,0,0,0,.623-.283l1.4-1.4a.927.927,0,0,1,.619-.307.835.835,0,0,1,.59.3l.008.008,2.259,2.259A.811.811,0,0,1,16.824,16.789Z" transform="translate(-0.02 -0.441)"/>
        <path id="Контур_12544" data-name="Контур 12544" d="M14.434,6a5.276,5.276,0,0,1,4.3,4.3.55.55,0,0,0,.545.459.732.732,0,0,0,.094-.008.554.554,0,0,0,.455-.64,6.38,6.38,0,0,0-5.2-5.2.556.556,0,0,0-.64.451A.547.547,0,0,0,14.434,6Z" transform="translate(-3.951 -1.381)"/>
        <path id="Контур_12545" data-name="Контур 12545" d="M23.4,8.568A10.5,10.5,0,0,0,14.84.008a.553.553,0,1,0-.18,1.09,9.383,9.383,0,0,1,7.65,7.65.55.55,0,0,0,.545.459.732.732,0,0,0,.094-.008A.543.543,0,0,0,23.4,8.568Z" transform="translate(-4.013 0)"/>
      </g>
    </g>
  </g>
</svg>
