<svg xmlns="http://www.w3.org/2000/svg" xmlns:xlink="http://www.w3.org/1999/xlink" width="28" height="28" viewBox="0 0 28 28">
  <defs>
    <clipPath id="clip-path">
      <rect id="Прямоугольник_13" data-name="Прямоугольник 13" width="28" height="28" transform="translate(-0.465)" fill="#0d1112" stroke="#707070" stroke-width="1"/>
    </clipPath>
  </defs>
  <g id="shopping-bag" transform="translate(0.465)" clip-path="url(#clip-path)">
    <path id="_002-shopping-bag" data-name="002-shopping-bag" d="M27.163,26.368,25.2,8.8a.8.8,0,0,0-.791-.707H19.5V6.691a5.916,5.916,0,1,0-11.833,0V8.1H2.758a.8.8,0,0,0-.791.708L0,26.368a.8.8,0,0,0,.791.884H26.372a.8.8,0,0,0,.791-.884ZM9.259,6.691a4.325,4.325,0,1,1,8.649,0V8.1H9.259ZM1.686,25.661,3.47,9.689h4.2v1.729a2.388,2.388,0,1,0,1.592,0V9.689h8.649v1.729a2.388,2.388,0,1,0,1.592,0V9.689h4.2l1.786,15.972ZM8.464,12.873a.8.8,0,1,1-.8.8A.8.8,0,0,1,8.464,12.873Zm10.241,0a.8.8,0,1,1-.8.8A.8.8,0,0,1,18.7,12.873Z" transform="translate(0.063 -0.43)" fill="#0d1112"/>
  </g>
</svg>
