<svg id="shopping-cart" xmlns="http://www.w3.org/2000/svg" width="19.305" height="19.556" viewBox="0 0 19.305 19.556">
  <g id="Сгруппировать_29" data-name="Сгруппировать 29" transform="translate(0 0)">
    <path id="Контур_45" data-name="Контур 45" d="M302.424,417.6a1.637,1.637,0,0,0-1.624,1.664,1.625,1.625,0,1,0,1.624-1.664Zm0,2.494a.8.8,0,0,1-.79-.834.791.791,0,1,1,.79.834Z" transform="translate(-289.358 -401.372)" fill="#fff"/>
    <path id="Контур_46" data-name="Контур 46" d="M80.324,417.6a1.637,1.637,0,0,0-1.624,1.664,1.663,1.663,0,0,0,1.624,1.664,1.637,1.637,0,0,0,1.624-1.664A1.663,1.663,0,0,0,80.324,417.6Zm0,2.494a.8.8,0,0,1-.79-.834.828.828,0,0,1,.79-.834.8.8,0,0,1,.79.834A.823.823,0,0,1,80.324,420.094Z" transform="translate(-76.122 -401.372)" fill="#fff"/>
    <path id="Контур_47" data-name="Контур 47" d="M31.078,11l-.647,2.538H14.1l3.013,8.928a2.07,2.07,0,0,0-1.764,2.1,2.1,2.1,0,0,0,2.079,2.163H28.747v-.79H17.429a1.274,1.274,0,0,1-1.249-1.333,1.3,1.3,0,0,1,1.249-1.333H28.787L31.741,11.83H33.4V11H31.078ZM28.165,22.442H17.971l-2.706-8.074H30.2l-2.039,8.074Z" transform="translate(-14.1 -11)" fill="#fff"/>
    <rect id="Прямоугольник_30" data-name="Прямоугольник 30" width="0.834" height="4.701" transform="translate(5.284 5.324)" fill="#fff"/>
    <rect id="Прямоугольник_31" data-name="Прямоугольник 31" width="0.834" height="4.701" transform="translate(8.242 5.324)" fill="#fff"/>
    <rect id="Прямоугольник_32" data-name="Прямоугольник 32" width="0.834" height="4.701" transform="translate(11.195 5.324)" fill="#fff"/>
  </g>
</svg>
