<svg xmlns="http://www.w3.org/2000/svg" xmlns:xlink="http://www.w3.org/1999/xlink" width="28" height="28" viewBox="0 0 28 28">
  <defs>
    <clipPath id="clip-path">
      <rect id="Прямоугольник_15" data-name="Прямоугольник 15" width="28" height="28" transform="translate(-0.271)" fill="#0d1112" stroke="#707070" stroke-width="1"/>
    </clipPath>
  </defs>
  <g id="user-001" transform="translate(0.271)" clip-path="url(#clip-path)">
    <g id="_001-avatar" data-name="001-avatar" transform="translate(2.321 0)">
      <g id="Сгруппировать_4628" data-name="Сгруппировать 4628" transform="translate(0)">
        <path id="Контур_12410" data-name="Контур 12410" d="M23.089,14.639h.18a5.191,5.191,0,0,0,3.966-1.716C29.4,10.481,29.042,6.3,29,5.9c-.141-3-1.558-4.433-2.729-5.1A6.255,6.255,0,0,0,23.247,0h-.1a6.265,6.265,0,0,0-3.027.771c-1.181.669-2.622,2.1-2.762,5.125-.039.4-.4,4.585,1.767,7.027A5.171,5.171,0,0,0,23.089,14.639Zm-4.225-8.6c0-.017.006-.034.006-.045.186-4.034,3.049-4.467,4.276-4.467h.068c1.519.034,4.1.653,4.276,4.467a.11.11,0,0,0,.006.045c.006.039.4,3.865-1.39,5.879a3.687,3.687,0,0,1-2.9,1.2h-.056a3.675,3.675,0,0,1-2.892-1.2C18.476,9.913,18.859,6.07,18.864,6.037Z" transform="translate(-11.633)" fill="#0d1112"/>
        <path id="Контур_12411" data-name="Контур 12411" d="M27.664,39.744v-.017c0-.045-.006-.09-.006-.141-.034-1.114-.107-3.719-2.549-4.551l-.056-.017a16.233,16.233,0,0,1-4.67-2.127.759.759,0,0,0-.872,1.243,17.523,17.523,0,0,0,5.137,2.346c1.311.467,1.457,1.868,1.5,3.151a1.131,1.131,0,0,0,.006.141,10.212,10.212,0,0,1-.118,1.738,20.7,20.7,0,0,1-9.919,2.307A20.824,20.824,0,0,1,6.19,41.5a9.667,9.667,0,0,1-.118-1.738c0-.045.006-.09.006-.141.039-1.283.186-2.684,1.5-3.151a17.686,17.686,0,0,0,5.137-2.346.759.759,0,1,0-.872-1.243,16.056,16.056,0,0,1-4.67,2.127c-.023.006-.039.011-.056.017-2.442.838-2.515,3.443-2.549,4.551a1.13,1.13,0,0,1-.006.141v.017a8.627,8.627,0,0,0,.287,2.549.722.722,0,0,0,.293.354A21.28,21.28,0,0,0,16.12,45.331,21.345,21.345,0,0,0,27.1,42.641a.753.753,0,0,0,.293-.354A9.051,9.051,0,0,0,27.664,39.744Z" transform="translate(-4.557 -18.163)" fill="#0d1112"/>
      </g>
    </g>
  </g>
</svg>
