<svg xmlns="http://www.w3.org/2000/svg" xmlns:xlink="http://www.w3.org/1999/xlink" width="56" height="20" viewBox="0 0 56 20">
  <defs>
    <linearGradient id="linear-gradient" x1="0.851" y1="0.851" x2="0.149" y2="0.149" gradientUnits="objectBoundingBox">
      <stop offset="0" stop-color="#fff"/>
      <stop offset="0.251" stop-color="#f5f5f5"/>
      <stop offset="0.529" stop-color="#efedea"/>
      <stop offset="1" stop-color="#fff"/>
    </linearGradient>
    <clipPath id="clip-Пользовательский_1">
      <rect width="56" height="20"/>
    </clipPath>
  </defs>
  <g id="Пользовательский_1" data-name="Пользовательский – 1" clip-path="url(#clip-Пользовательский_1)">
    <text id="Grand_Adore" data-name="Grand Adore" transform="translate(1 19)" fill="#fff" font-size="7" font-family="Couture-Bold, Couture" font-weight="700"><tspan x="0" y="0">GRAND ADORE</tspan></text>
    <g id="Сгруппировать_1" data-name="Сгруппировать 1" transform="translate(21 1)">
      <g id="Слой_x0020_1" transform="translate(0)">
        <path id="Контур_12625" data-name="Контур 12625" d="M.068,5.643Q1.7,2.821,3.326,0H9.995l1.059,1.835c.677,1.173,1.358,2.354,2.247,3.89l.03.052q-1.669,2.888-3.336,5.777H3.325L1.657,8.666-.01,5.777l.078-.134ZM2.123,3.158.611,5.777l3.024,5.239h6.05L12.71,5.777,9.685.539H3.635Z" transform="translate(0.01)" fill="url(#linear-gradient)"/>
      </g>
      <path id="Контур_12626" data-name="Контур 12626" d="M4.541-30.808c-.678,0-1.455-.006-2.012-.006v.728a.642.642,0,0,0,.154.006c.22,0,.623-.006.8-.006h.088a1.118,1.118,0,0,1-1.042.6,1.182,1.182,0,0,1-1.191-1.191,1.186,1.186,0,0,1,1.191-1.191,1.161,1.161,0,0,1,1.02.579c.386-.193.413-.209.761-.386a2.065,2.065,0,0,0-1.781-1.036A2.04,2.04,0,0,0,.5-30.681a2.041,2.041,0,0,0,2.034,2.04A2.022,2.022,0,0,0,4.315-29.7,2.5,2.5,0,0,0,4.541-30.808Zm2.668.645a1.179,1.179,0,0,0,.937-1.218,1.22,1.22,0,0,0-1.373-1.262H5V-28.7H5.87v-1.417h.424L7.286-28.7H8.345l-1.1-1.461Zm-.667-1.808c.413,0,.755.077.755.59s-.342.6-.755.6H5.87v-1.185Z" transform="translate(2.332 36.551)" fill="#fff"/>
    </g>
  </g>
</svg>
