<svg xmlns="http://www.w3.org/2000/svg" width="42.123" height="31.592" viewBox="0 0 42.123 31.592"><path d="M42.123,86.978a5.219,5.219,0,0,1-.676,2.533L28.147,74.63,41.3,63.12a5.227,5.227,0,0,1,.82,2.8V86.978ZM21.062,77.332,39.367,61.314a5.2,5.2,0,0,0-2.51-.663H5.265a5.181,5.181,0,0,0-2.508.663Zm5.1-.969-4.237,3.71a1.321,1.321,0,0,1-1.733,0l-4.238-3.71L2.489,91.433a5.2,5.2,0,0,0,2.777.81H36.858a5.2,5.2,0,0,0,2.777-.81ZM.82,63.119a5.228,5.228,0,0,0-.82,2.8V86.978a5.2,5.2,0,0,0,.676,2.533l13.3-14.883Z" transform="translate(0 -60.651)" fill="#7c7e80"/></svg>