<svg xmlns="http://www.w3.org/2000/svg" width="37.153" height="30.641" viewBox="0 0 37.153 30.641"><g transform="translate(-0.037)"><path d="M18.828,10.139c6.271.062,10.2-.329,10.73,6.622h7.647c0-10.768-9.391-12.219-18.577-12.219S.052,5.993.052,16.761H7.64C8.227,9.678,12.609,10.078,18.828,10.139Z" transform="translate(-0.014 -4.542)" fill="#7c7e80"/><path d="M26.883,19.469V18.386c0-.484-.558-.515-1.247-.515H24.51c-.688,0-1.247.03-1.247.515v1.657H15.3V18.386c0-.484-.558-.515-1.247-.515H12.927c-.688,0-1.247.03-1.247.515v2.028C9.867,22.3,3.931,30.324,3.715,31.3l0,6.483A1.087,1.087,0,0,0,4.8,38.863H33.76a1.087,1.087,0,0,0,1.086-1.086V31.262c-.214-.943-6.148-8.964-7.963-10.849Zm-11.975,12.7a1.055,1.055,0,1,1,1.055-1.055A1.055,1.055,0,0,1,14.908,32.167Zm0-3.62a1.055,1.055,0,1,1,1.055-1.055A1.055,1.055,0,0,1,14.908,28.548Zm0-3.619a1.055,1.055,0,1,1,1.055-1.055A1.055,1.055,0,0,1,14.908,24.929Zm4.343,7.238a1.055,1.055,0,1,1,1.055-1.055A1.055,1.055,0,0,1,19.251,32.167Zm0-3.62a1.055,1.055,0,1,1,1.055-1.055A1.055,1.055,0,0,1,19.251,28.548Zm0-3.619a1.055,1.055,0,1,1,1.055-1.055A1.055,1.055,0,0,1,19.251,24.929Zm4.343,7.238a1.055,1.055,0,1,1,1.055-1.055A1.055,1.055,0,0,1,23.595,32.167Zm0-3.62a1.055,1.055,0,1,1,1.055-1.055A1.055,1.055,0,0,1,23.595,28.548Zm0-3.619a1.055,1.055,0,1,1,1.055-1.055A1.055,1.055,0,0,1,23.595,24.929Z" transform="translate(-1.026 -8.222)" fill="#7c7e80"/></g></svg>